<svg width="989" height="198" viewBox="0 0 989 198" fill="none" xmlns="http://www.w3.org/2000/svg">
<g filter="url(#filter0_d_198_1056)">
<rect x="12.8101" y="12.3633" width="964" height="175" rx="6" fill="white" shape-rendering="crispEdges"/>
<g clip-path="url(#clip0_198_1056)">
<path d="M55.6226 66.3633V44.9473H59.1382V63.375H68.2349V66.3633H55.6226ZM71.9409 66.3633V44.9473H75.4565V66.3633H71.9409ZM84.5972 66.3633H81.1108V44.9473H93.2104V47.9062H84.5972V54.5859H92.6538V57.5303H84.5972V66.3633ZM109.236 66.3633H97.1069V44.9473H109.236V47.9062H100.623V53.7217H108.694V56.666H100.623V63.3896H109.236V66.3633ZM126.228 60.5332C126.228 61.8027 125.916 62.8965 125.291 63.8145C124.675 64.7324 123.787 65.4355 122.625 65.9238C121.472 66.4121 120.095 66.6562 118.494 66.6562C117.712 66.6562 116.965 66.6123 116.252 66.5244C115.54 66.4365 114.866 66.3096 114.231 66.1436C113.606 65.9678 113.035 65.7578 112.517 65.5137V62.2031C113.386 62.584 114.358 62.9307 115.432 63.2432C116.506 63.5459 117.6 63.6973 118.713 63.6973C119.622 63.6973 120.374 63.5801 120.969 63.3457C121.575 63.1016 122.024 62.7598 122.317 62.3203C122.61 61.8711 122.756 61.3486 122.756 60.7529C122.756 60.1182 122.585 59.5811 122.244 59.1416C121.902 58.7021 121.384 58.3018 120.691 57.9404C120.007 57.5693 119.148 57.1738 118.113 56.7539C117.41 56.4707 116.736 56.1484 116.091 55.7871C115.457 55.4258 114.89 55.001 114.392 54.5127C113.894 54.0244 113.499 53.4482 113.206 52.7842C112.922 52.1104 112.781 51.3193 112.781 50.4111C112.781 49.2002 113.069 48.165 113.645 47.3057C114.231 46.4463 115.051 45.7871 116.106 45.3281C117.17 44.8691 118.411 44.6396 119.827 44.6396C120.95 44.6396 122.004 44.7568 122.991 44.9912C123.987 45.2256 124.963 45.5576 125.92 45.9873L124.807 48.8145C123.928 48.4531 123.074 48.165 122.244 47.9502C121.423 47.7354 120.583 47.6279 119.724 47.6279C118.982 47.6279 118.352 47.7402 117.834 47.9648C117.317 48.1895 116.921 48.5068 116.648 48.917C116.384 49.3174 116.252 49.7959 116.252 50.3525C116.252 50.9775 116.404 51.5049 116.707 51.9346C117.019 52.3545 117.498 52.7402 118.142 53.0918C118.796 53.4434 119.636 53.834 120.662 54.2637C121.843 54.752 122.844 55.2646 123.665 55.8018C124.495 56.3389 125.129 56.9834 125.569 57.7354C126.008 58.4775 126.228 59.4102 126.228 60.5332ZM137.786 66.3633H134.255V47.9355H127.986V44.9473H144.041V47.9355H137.786V66.3633ZM153.386 54.7178L158.469 44.9473H162.263L155.144 58.043V66.3633H151.643V58.1748L144.509 44.9473H148.333L153.386 54.7178ZM165.076 66.3633V44.9473H168.591V63.375H177.688V66.3633H165.076ZM193.523 66.3633H181.394V44.9473H193.523V47.9062H184.91V53.7217H192.981V56.666H184.91V63.3896H193.523V66.3633ZM219.216 66.3633L217.122 60.416H208.933L206.838 66.3633H203.132L211.101 44.8594H214.998L222.952 66.3633H219.216ZM216.213 57.3984L214.177 51.5391C214.099 51.2852 213.987 50.9287 213.84 50.4697C213.694 50.001 213.547 49.5273 213.401 49.0488C213.254 48.5605 213.132 48.1504 213.035 47.8184C212.937 48.2188 212.815 48.668 212.668 49.166C212.532 49.6543 212.395 50.1133 212.258 50.543C212.131 50.9727 212.034 51.3047 211.965 51.5391L209.915 57.3984H216.213ZM233.206 66.3633H229.675V47.9355H223.406V44.9473H239.46V47.9355H233.206V66.3633ZM259.661 47.6279C258.635 47.6279 257.717 47.8135 256.907 48.1846C256.106 48.5557 255.427 49.0928 254.871 49.7959C254.314 50.4893 253.889 51.334 253.596 52.3301C253.303 53.3164 253.157 54.4297 253.157 55.6699C253.157 57.3301 253.391 58.7607 253.86 59.9619C254.329 61.1533 255.042 62.0713 255.999 62.7158C256.956 63.3506 258.167 63.668 259.631 63.668C260.54 63.668 261.423 63.5801 262.283 63.4043C263.142 63.2285 264.031 62.9893 264.949 62.6865V65.6748C264.08 66.0166 263.201 66.2656 262.312 66.4219C261.423 66.5781 260.398 66.6562 259.236 66.6562C257.048 66.6562 255.232 66.2021 253.787 65.2939C252.351 64.3857 251.277 63.1064 250.564 61.4561C249.861 59.8057 249.509 57.8721 249.509 55.6553C249.509 54.0342 249.734 52.5498 250.183 51.2021C250.632 49.8545 251.287 48.6924 252.146 47.7158C253.005 46.7295 254.065 45.9727 255.325 45.4453C256.594 44.9082 258.044 44.6396 259.675 44.6396C260.75 44.6396 261.804 44.7617 262.839 45.0059C263.884 45.2402 264.851 45.5771 265.74 46.0166L264.509 48.917C263.767 48.5654 262.991 48.2627 262.18 48.0088C261.37 47.7549 260.53 47.6279 259.661 47.6279ZM282.82 66.3633L280.725 60.416H272.537L270.442 66.3633H266.736L274.705 44.8594H278.601L286.555 66.3633H282.82ZM279.817 57.3984L277.781 51.5391C277.703 51.2852 277.59 50.9287 277.444 50.4697C277.297 50.001 277.151 49.5273 277.004 49.0488C276.858 48.5605 276.736 48.1504 276.638 47.8184C276.541 48.2188 276.418 48.668 276.272 49.166C276.135 49.6543 275.999 50.1133 275.862 50.543C275.735 50.9727 275.637 51.3047 275.569 51.5391L273.518 57.3984H279.817ZM301.746 60.5332C301.746 61.8027 301.433 62.8965 300.808 63.8145C300.193 64.7324 299.304 65.4355 298.142 65.9238C296.99 66.4121 295.613 66.6562 294.011 66.6562C293.23 66.6562 292.483 66.6123 291.77 66.5244C291.057 66.4365 290.383 66.3096 289.749 66.1436C289.124 65.9678 288.552 65.7578 288.035 65.5137V62.2031C288.904 62.584 289.875 62.9307 290.95 63.2432C292.024 63.5459 293.118 63.6973 294.231 63.6973C295.139 63.6973 295.891 63.5801 296.487 63.3457C297.092 63.1016 297.542 62.7598 297.834 62.3203C298.127 61.8711 298.274 61.3486 298.274 60.7529C298.274 60.1182 298.103 59.5811 297.761 59.1416C297.419 58.7021 296.902 58.3018 296.208 57.9404C295.525 57.5693 294.666 57.1738 293.63 56.7539C292.927 56.4707 292.253 56.1484 291.609 55.7871C290.974 55.4258 290.408 55.001 289.91 54.5127C289.412 54.0244 289.016 53.4482 288.723 52.7842C288.44 52.1104 288.298 51.3193 288.298 50.4111C288.298 49.2002 288.586 48.165 289.163 47.3057C289.749 46.4463 290.569 45.7871 291.624 45.3281C292.688 44.8691 293.928 44.6396 295.344 44.6396C296.467 44.6396 297.522 44.7568 298.508 44.9912C299.504 45.2256 300.481 45.5576 301.438 45.9873L300.325 48.8145C299.446 48.4531 298.591 48.165 297.761 47.9502C296.941 47.7354 296.101 47.6279 295.242 47.6279C294.5 47.6279 293.87 47.7402 293.352 47.9648C292.834 48.1895 292.439 48.5068 292.166 48.917C291.902 49.3174 291.77 49.7959 291.77 50.3525C291.77 50.9775 291.921 51.5049 292.224 51.9346C292.537 52.3545 293.015 52.7402 293.66 53.0918C294.314 53.4434 295.154 53.834 296.179 54.2637C297.361 54.752 298.362 55.2646 299.182 55.8018C300.012 56.3389 300.647 56.9834 301.086 57.7354C301.526 58.4775 301.746 59.4102 301.746 60.5332ZM319.148 66.3633L317.053 60.416H308.865L306.77 66.3633H303.064L311.033 44.8594H314.929L322.883 66.3633H319.148ZM316.145 57.3984L314.109 51.5391C314.031 51.2852 313.918 50.9287 313.772 50.4697C313.625 50.001 313.479 49.5273 313.333 49.0488C313.186 48.5605 313.064 48.1504 312.966 47.8184C312.869 48.2188 312.747 48.668 312.6 49.166C312.463 49.6543 312.327 50.1133 312.19 50.543C312.063 50.9727 311.965 51.3047 311.897 51.5391L309.846 57.3984H316.145ZM334.353 54.7324H342.351V65.4844C341.228 65.8555 340.066 66.1436 338.865 66.3486C337.664 66.5537 336.316 66.6562 334.822 66.6562C332.644 66.6562 330.798 66.2266 329.285 65.3672C327.781 64.498 326.638 63.2432 325.857 61.6025C325.076 59.9521 324.685 57.9648 324.685 55.6406C324.685 53.4043 325.12 51.4658 325.989 49.8252C326.858 48.1748 328.123 46.9004 329.783 46.002C331.443 45.0938 333.455 44.6396 335.818 44.6396C336.98 44.6396 338.103 44.7568 339.187 44.9912C340.281 45.2158 341.282 45.5283 342.19 45.9287L340.959 48.8291C340.237 48.4873 339.426 48.1992 338.528 47.9648C337.629 47.7305 336.697 47.6133 335.73 47.6133C334.197 47.6133 332.874 47.9453 331.76 48.6094C330.657 49.2734 329.807 50.2109 329.211 51.4219C328.616 52.623 328.318 54.0439 328.318 55.6846C328.318 57.2764 328.557 58.6729 329.036 59.874C329.514 61.0752 330.261 62.0127 331.277 62.6865C332.302 63.3506 333.625 63.6826 335.247 63.6826C336.057 63.6826 336.746 63.6387 337.312 63.5508C337.878 63.4629 338.401 63.3652 338.879 63.2578V57.7354H334.353V54.7324ZM353.499 44.9473C355.344 44.9473 356.868 45.1719 358.069 45.6211C359.28 46.0703 360.178 46.7539 360.764 47.6719C361.36 48.5898 361.658 49.7568 361.658 51.1729C361.658 52.2275 361.462 53.126 361.072 53.8682C360.681 54.6104 360.168 55.2256 359.534 55.7139C358.899 56.2021 358.22 56.5928 357.498 56.8857L363.577 66.3633H359.607L354.436 57.7793H350.994V66.3633H347.478V44.9473H353.499ZM353.264 47.877H350.994V54.8789H353.425C355.056 54.8789 356.238 54.5762 356.97 53.9707C357.712 53.3652 358.083 52.4717 358.083 51.29C358.083 50.0498 357.688 49.1709 356.897 48.6533C356.116 48.1357 354.905 47.877 353.264 47.877ZM379.91 66.3633L377.815 60.416H369.626L367.532 66.3633H363.826L371.794 44.8594H375.691L383.645 66.3633H379.91ZM376.907 57.3984L374.871 51.5391C374.792 51.2852 374.68 50.9287 374.534 50.4697C374.387 50.001 374.241 49.5273 374.094 49.0488C373.948 48.5605 373.826 48.1504 373.728 47.8184C373.63 48.2188 373.508 48.668 373.362 49.166C373.225 49.6543 373.088 50.1133 372.952 50.543C372.825 50.9727 372.727 51.3047 372.659 51.5391L370.608 57.3984H376.907ZM404.343 66.3633H400.022L389.534 49.2686H389.402C389.441 49.8447 389.475 50.4551 389.504 51.0996C389.543 51.7441 389.573 52.4082 389.592 53.0918C389.622 53.7754 389.646 54.4688 389.666 55.1719V66.3633H386.472V44.9473H390.764L401.238 61.9248H401.34C401.321 61.4268 401.296 60.8555 401.267 60.2109C401.238 59.5664 401.208 58.9023 401.179 58.2188C401.16 57.5254 401.145 56.8564 401.135 56.2119V44.9473H404.343V66.3633ZM427.356 55.4502C427.356 57.8623 426.907 59.8789 426.008 61.5C425.11 63.1113 423.806 64.3271 422.097 65.1475C420.388 65.958 418.328 66.3633 415.916 66.3633H409.968V44.9473H416.56C418.777 44.9473 420.691 45.3477 422.302 46.1484C423.914 46.9395 425.159 48.1162 426.038 49.6787C426.917 51.2314 427.356 53.1553 427.356 55.4502ZM423.694 55.5527C423.694 53.7949 423.416 52.3496 422.859 51.2168C422.312 50.084 421.501 49.2441 420.427 48.6973C419.363 48.1406 418.049 47.8623 416.487 47.8623H413.484V63.4189H415.974C418.562 63.4189 420.496 62.7598 421.775 61.4414C423.054 60.123 423.694 58.1602 423.694 55.5527Z" fill="#232323"/>
</g>
<path d="M64.2788 100.637C64.2788 101.517 64.1668 102.319 63.9429 103.043C63.7189 103.762 63.3856 104.382 62.9429 104.902C62.5054 105.418 61.9611 105.816 61.3101 106.098C60.659 106.379 59.9038 106.52 59.0444 106.52C58.159 106.52 57.3856 106.379 56.7241 106.098C56.0679 105.816 55.521 105.415 55.0835 104.895C54.6512 104.374 54.3257 103.751 54.1069 103.027C53.8934 102.303 53.7866 101.501 53.7866 100.621C53.7866 99.4544 53.9793 98.431 54.3647 97.5508C54.7502 96.6706 55.3335 95.9857 56.1147 95.4961C56.9012 95.0065 57.8856 94.7617 59.0679 94.7617C60.1981 94.7617 61.1486 95.0039 61.9194 95.4883C62.6955 95.9727 63.2814 96.6549 63.6772 97.5352C64.0783 98.4102 64.2788 99.444 64.2788 100.637ZM55.1851 100.637C55.1851 101.605 55.3231 102.444 55.5991 103.152C55.8752 103.861 56.297 104.408 56.8647 104.793C57.4377 105.178 58.1642 105.371 59.0444 105.371C59.9299 105.371 60.6538 105.178 61.2163 104.793C61.784 104.408 62.2033 103.861 62.4741 103.152C62.745 102.444 62.8804 101.605 62.8804 100.637C62.8804 99.1628 62.5705 98.0117 61.9507 97.1836C61.3361 96.3503 60.3752 95.9336 59.0679 95.9336C58.1825 95.9336 57.4533 96.1237 56.8804 96.5039C56.3075 96.8841 55.8804 97.4258 55.5991 98.1289C55.3231 98.8268 55.1851 99.6628 55.1851 100.637ZM68.5132 106.363L65.2632 97.8008H66.6538L68.5366 102.98C68.6668 103.335 68.7996 103.725 68.9351 104.152C69.0705 104.579 69.1642 104.923 69.2163 105.184H69.271C69.3335 104.923 69.4377 104.579 69.5835 104.152C69.7293 103.72 69.8621 103.329 69.9819 102.98L71.8647 97.8008H73.2554L69.9976 106.363H68.5132ZM77.9272 97.6445C78.6564 97.6445 79.2814 97.806 79.8022 98.1289C80.3231 98.4518 80.7215 98.9049 80.9976 99.4883C81.2736 100.066 81.4116 100.743 81.4116 101.52V102.324H75.4976C75.5132 103.329 75.7632 104.095 76.2476 104.621C76.7319 105.147 77.4142 105.41 78.2944 105.41C78.8361 105.41 79.3153 105.361 79.7319 105.262C80.1486 105.163 80.5809 105.017 81.0288 104.824V105.965C80.5965 106.158 80.1668 106.298 79.7397 106.387C79.3179 106.475 78.8179 106.52 78.2397 106.52C77.4168 106.52 76.6981 106.353 76.0835 106.02C75.4741 105.681 75.0002 105.186 74.6616 104.535C74.3231 103.884 74.1538 103.087 74.1538 102.145C74.1538 101.223 74.3075 100.426 74.6147 99.7539C74.9272 99.0768 75.3647 98.556 75.9272 98.1914C76.495 97.8268 77.1616 97.6445 77.9272 97.6445ZM77.9116 98.707C77.2189 98.707 76.6668 98.9336 76.2554 99.3867C75.8439 99.8398 75.5991 100.473 75.521 101.285H80.0522C80.047 100.775 79.9663 100.327 79.8101 99.9414C79.659 99.5508 79.4272 99.2487 79.1147 99.0352C78.8022 98.8164 78.4012 98.707 77.9116 98.707ZM87.5054 97.6445C87.6772 97.6445 87.8569 97.6549 88.0444 97.6758C88.2319 97.6914 88.3986 97.7148 88.5444 97.7461L88.3804 98.9492C88.2397 98.9128 88.0835 98.8841 87.9116 98.8633C87.7397 98.8424 87.5783 98.832 87.4272 98.832C87.0835 98.832 86.758 98.9023 86.4507 99.043C86.1486 99.1784 85.883 99.3763 85.6538 99.6367C85.4246 99.8919 85.245 100.202 85.1147 100.566C84.9845 100.926 84.9194 101.327 84.9194 101.77V106.363H83.6147V97.8008H84.6929L84.8335 99.3789H84.8882C85.0653 99.0612 85.2788 98.7721 85.5288 98.5117C85.7788 98.2461 86.0679 98.0352 86.396 97.8789C86.7293 97.7227 87.0991 97.6445 87.5054 97.6445ZM101.794 103.715H100.083V106.363H98.8179V103.715H93.2944V102.621L98.7319 94.8789H100.083V102.543H101.794V103.715ZM98.8179 102.543V98.8086C98.8179 98.5221 98.8205 98.2643 98.8257 98.0352C98.8309 97.8008 98.8387 97.5846 98.8491 97.3867C98.8595 97.1836 98.8674 96.9909 98.8726 96.8086C98.883 96.6263 98.8908 96.4466 98.896 96.2695H98.8335C98.7345 96.4779 98.62 96.6992 98.4897 96.9336C98.3647 97.1628 98.2371 97.3685 98.1069 97.5508L94.5835 102.543H98.8179ZM110.443 100.637C110.443 101.564 110.373 102.392 110.232 103.121C110.091 103.85 109.87 104.467 109.568 104.973C109.266 105.478 108.875 105.863 108.396 106.129C107.917 106.389 107.341 106.52 106.669 106.52C105.82 106.52 105.117 106.288 104.56 105.824C104.008 105.361 103.594 104.691 103.318 103.816C103.047 102.936 102.912 101.876 102.912 100.637C102.912 99.418 103.034 98.3711 103.279 97.4961C103.529 96.6159 103.93 95.9414 104.482 95.4727C105.034 94.9987 105.763 94.7617 106.669 94.7617C107.529 94.7617 108.237 94.9961 108.794 95.4648C109.352 95.9284 109.766 96.6003 110.037 97.4805C110.307 98.3555 110.443 99.4076 110.443 100.637ZM104.216 100.637C104.216 101.699 104.297 102.585 104.458 103.293C104.62 104.001 104.88 104.533 105.24 104.887C105.604 105.236 106.081 105.41 106.669 105.41C107.258 105.41 107.732 105.236 108.091 104.887C108.456 104.538 108.719 104.009 108.88 103.301C109.047 102.592 109.13 101.704 109.13 100.637C109.13 99.5898 109.05 98.7148 108.888 98.0117C108.727 97.3034 108.466 96.7721 108.107 96.418C107.748 96.0586 107.268 95.8789 106.669 95.8789C106.07 95.8789 105.591 96.0586 105.232 96.418C104.873 96.7721 104.612 97.3034 104.451 98.0117C104.294 98.7148 104.216 99.5898 104.216 100.637ZM114.115 104.504L114.216 104.684C114.123 105.064 114.003 105.47 113.857 105.902C113.716 106.335 113.56 106.767 113.388 107.199C113.222 107.637 113.052 108.046 112.88 108.426H111.912C112.021 108.009 112.128 107.569 112.232 107.105C112.336 106.647 112.43 106.194 112.513 105.746C112.602 105.293 112.672 104.879 112.724 104.504H114.115ZM123.74 100.637C123.74 101.564 123.669 102.392 123.529 103.121C123.388 103.85 123.167 104.467 122.865 104.973C122.563 105.478 122.172 105.863 121.693 106.129C121.214 106.389 120.638 106.52 119.966 106.52C119.117 106.52 118.414 106.288 117.857 105.824C117.305 105.361 116.891 104.691 116.615 103.816C116.344 102.936 116.208 101.876 116.208 100.637C116.208 99.418 116.331 98.3711 116.576 97.4961C116.826 96.6159 117.227 95.9414 117.779 95.4727C118.331 94.9987 119.06 94.7617 119.966 94.7617C120.826 94.7617 121.534 94.9961 122.091 95.4648C122.649 95.9284 123.063 96.6003 123.333 97.4805C123.604 98.3555 123.74 99.4076 123.74 100.637ZM117.513 100.637C117.513 101.699 117.594 102.585 117.755 103.293C117.917 104.001 118.177 104.533 118.537 104.887C118.901 105.236 119.378 105.41 119.966 105.41C120.555 105.41 121.029 105.236 121.388 104.887C121.753 104.538 122.016 104.009 122.177 103.301C122.344 102.592 122.427 101.704 122.427 100.637C122.427 99.5898 122.347 98.7148 122.185 98.0117C122.024 97.3034 121.763 96.7721 121.404 96.418C121.044 96.0586 120.565 95.8789 119.966 95.8789C119.367 95.8789 118.888 96.0586 118.529 96.418C118.169 96.7721 117.909 97.3034 117.748 98.0117C117.591 98.7148 117.513 99.5898 117.513 100.637ZM132.896 100.637C132.896 101.564 132.826 102.392 132.685 103.121C132.544 103.85 132.323 104.467 132.021 104.973C131.719 105.478 131.328 105.863 130.849 106.129C130.37 106.389 129.794 106.52 129.123 106.52C128.274 106.52 127.57 106.288 127.013 105.824C126.461 105.361 126.047 104.691 125.771 103.816C125.5 102.936 125.365 101.876 125.365 100.637C125.365 99.418 125.487 98.3711 125.732 97.4961C125.982 96.6159 126.383 95.9414 126.935 95.4727C127.487 94.9987 128.216 94.7617 129.123 94.7617C129.982 94.7617 130.69 94.9961 131.248 95.4648C131.805 95.9284 132.219 96.6003 132.49 97.4805C132.761 98.3555 132.896 99.4076 132.896 100.637ZM126.669 100.637C126.669 101.699 126.75 102.585 126.912 103.293C127.073 104.001 127.333 104.533 127.693 104.887C128.057 105.236 128.534 105.41 129.123 105.41C129.711 105.41 130.185 105.236 130.544 104.887C130.909 104.538 131.172 104.009 131.333 103.301C131.5 102.592 131.583 101.704 131.583 100.637C131.583 99.5898 131.503 98.7148 131.341 98.0117C131.18 97.3034 130.919 96.7721 130.56 96.418C130.201 96.0586 129.722 95.8789 129.123 95.8789C128.524 95.8789 128.044 96.0586 127.685 96.418C127.326 96.7721 127.065 97.3034 126.904 98.0117C126.748 98.7148 126.669 99.5898 126.669 100.637ZM142.052 100.637C142.052 101.564 141.982 102.392 141.841 103.121C141.701 103.85 141.479 104.467 141.177 104.973C140.875 105.478 140.485 105.863 140.005 106.129C139.526 106.389 138.951 106.52 138.279 106.52C137.43 106.52 136.727 106.288 136.169 105.824C135.617 105.361 135.203 104.691 134.927 103.816C134.656 102.936 134.521 101.876 134.521 100.637C134.521 99.418 134.643 98.3711 134.888 97.4961C135.138 96.6159 135.539 95.9414 136.091 95.4727C136.643 94.9987 137.373 94.7617 138.279 94.7617C139.138 94.7617 139.847 94.9961 140.404 95.4648C140.961 95.9284 141.375 96.6003 141.646 97.4805C141.917 98.3555 142.052 99.4076 142.052 100.637ZM135.826 100.637C135.826 101.699 135.906 102.585 136.068 103.293C136.229 104.001 136.49 104.533 136.849 104.887C137.214 105.236 137.69 105.41 138.279 105.41C138.867 105.41 139.341 105.236 139.701 104.887C140.065 104.538 140.328 104.009 140.49 103.301C140.656 102.592 140.74 101.704 140.74 100.637C140.74 99.5898 140.659 98.7148 140.498 98.0117C140.336 97.3034 140.076 96.7721 139.716 96.418C139.357 96.0586 138.878 95.8789 138.279 95.8789C137.68 95.8789 137.201 96.0586 136.841 96.418C136.482 96.7721 136.222 97.3034 136.06 98.0117C135.904 98.7148 135.826 99.5898 135.826 100.637ZM149.693 94.207V97.8398C149.693 98.0482 149.688 98.2591 149.677 98.4727C149.667 98.681 149.649 98.8737 149.623 99.0508H149.708C149.886 98.7487 150.11 98.4961 150.38 98.293C150.656 98.0846 150.969 97.9284 151.318 97.8242C151.667 97.7148 152.037 97.6602 152.427 97.6602C153.115 97.6602 153.688 97.7695 154.146 97.9883C154.61 98.207 154.956 98.5456 155.185 99.0039C155.419 99.4622 155.537 100.056 155.537 100.785V106.363H154.255V100.871C154.255 100.158 154.091 99.6237 153.763 99.2695C153.44 98.9154 152.943 98.7383 152.271 98.7383C151.636 98.7383 151.128 98.8607 150.748 99.1055C150.373 99.3451 150.102 99.6992 149.935 100.168C149.774 100.637 149.693 101.21 149.693 101.887V106.363H148.396V94.207H149.693ZM161.412 97.6602C162.432 97.6602 163.19 97.8893 163.685 98.3477C164.18 98.806 164.427 99.5378 164.427 100.543V106.363H163.482L163.232 105.098H163.169C162.93 105.41 162.68 105.673 162.419 105.887C162.159 106.095 161.857 106.254 161.513 106.363C161.175 106.467 160.758 106.52 160.263 106.52C159.742 106.52 159.279 106.428 158.873 106.246C158.472 106.064 158.154 105.788 157.919 105.418C157.69 105.048 157.576 104.579 157.576 104.012C157.576 103.158 157.914 102.501 158.591 102.043C159.268 101.585 160.3 101.335 161.685 101.293L163.162 101.23V100.707C163.162 99.9674 163.003 99.4492 162.685 99.1523C162.367 98.8555 161.919 98.707 161.341 98.707C160.893 98.707 160.466 98.7721 160.06 98.9023C159.654 99.0326 159.268 99.1862 158.904 99.3633L158.505 98.3789C158.891 98.181 159.333 98.0117 159.833 97.8711C160.333 97.7305 160.86 97.6602 161.412 97.6602ZM163.146 102.145L161.841 102.199C160.774 102.241 160.021 102.415 159.583 102.723C159.146 103.03 158.927 103.465 158.927 104.027C158.927 104.517 159.076 104.879 159.373 105.113C159.669 105.348 160.063 105.465 160.552 105.465C161.313 105.465 161.935 105.254 162.419 104.832C162.904 104.41 163.146 103.777 163.146 102.934V102.145ZM171.123 97.6445C172.19 97.6445 173.042 98.0117 173.677 98.7461C174.313 99.4805 174.63 100.585 174.63 102.059C174.63 103.033 174.485 103.85 174.193 104.512C173.901 105.173 173.49 105.673 172.958 106.012C172.432 106.35 171.81 106.52 171.091 106.52C170.638 106.52 170.24 106.46 169.896 106.34C169.552 106.22 169.258 106.059 169.013 105.855C168.768 105.652 168.565 105.431 168.404 105.191H168.31C168.326 105.395 168.344 105.639 168.365 105.926C168.391 106.212 168.404 106.462 168.404 106.676V110.191H167.099V97.8008H168.169L168.341 99.0664H168.404C168.57 98.806 168.774 98.569 169.013 98.3555C169.253 98.1367 169.544 97.9648 169.888 97.8398C170.237 97.7096 170.649 97.6445 171.123 97.6445ZM170.896 98.7383C170.302 98.7383 169.823 98.8529 169.458 99.082C169.099 99.3112 168.836 99.6549 168.669 100.113C168.503 100.566 168.414 101.137 168.404 101.824V102.074C168.404 102.798 168.482 103.41 168.638 103.91C168.8 104.41 169.063 104.79 169.427 105.051C169.797 105.311 170.292 105.441 170.912 105.441C171.443 105.441 171.886 105.298 172.24 105.012C172.594 104.725 172.857 104.327 173.029 103.816C173.206 103.301 173.294 102.71 173.294 102.043C173.294 101.033 173.097 100.23 172.701 99.6367C172.31 99.0378 171.708 98.7383 170.896 98.7383ZM180.919 97.6445C181.987 97.6445 182.839 98.0117 183.474 98.7461C184.11 99.4805 184.427 100.585 184.427 102.059C184.427 103.033 184.281 103.85 183.99 104.512C183.698 105.173 183.287 105.673 182.755 106.012C182.229 106.35 181.607 106.52 180.888 106.52C180.435 106.52 180.037 106.46 179.693 106.34C179.349 106.22 179.055 106.059 178.81 105.855C178.565 105.652 178.362 105.431 178.201 105.191H178.107C178.123 105.395 178.141 105.639 178.162 105.926C178.188 106.212 178.201 106.462 178.201 106.676V110.191H176.896V97.8008H177.966L178.138 99.0664H178.201C178.367 98.806 178.57 98.569 178.81 98.3555C179.05 98.1367 179.341 97.9648 179.685 97.8398C180.034 97.7096 180.445 97.6445 180.919 97.6445ZM180.693 98.7383C180.099 98.7383 179.62 98.8529 179.255 99.082C178.896 99.3112 178.633 99.6549 178.466 100.113C178.3 100.566 178.211 101.137 178.201 101.824V102.074C178.201 102.798 178.279 103.41 178.435 103.91C178.597 104.41 178.86 104.79 179.224 105.051C179.594 105.311 180.089 105.441 180.708 105.441C181.24 105.441 181.682 105.298 182.037 105.012C182.391 104.725 182.654 104.327 182.826 103.816C183.003 103.301 183.091 102.71 183.091 102.043C183.091 101.033 182.893 100.23 182.498 99.6367C182.107 99.0378 181.505 98.7383 180.693 98.7383ZM185.341 97.8008H186.732L188.623 102.77C188.732 103.061 188.833 103.342 188.927 103.613C189.021 103.879 189.104 104.134 189.177 104.379C189.25 104.624 189.307 104.861 189.349 105.09H189.404C189.477 104.829 189.581 104.488 189.716 104.066C189.852 103.639 189.998 103.204 190.154 102.762L191.943 97.8008H193.341L189.615 107.621C189.417 108.147 189.185 108.605 188.919 108.996C188.659 109.387 188.341 109.686 187.966 109.895C187.591 110.108 187.138 110.215 186.607 110.215C186.362 110.215 186.146 110.199 185.958 110.168C185.771 110.142 185.61 110.111 185.474 110.074V109.035C185.589 109.061 185.727 109.085 185.888 109.105C186.055 109.126 186.227 109.137 186.404 109.137C186.727 109.137 187.005 109.074 187.24 108.949C187.479 108.829 187.685 108.652 187.857 108.418C188.029 108.184 188.177 107.905 188.302 107.582L188.771 106.379L185.341 97.8008ZM202.677 98.8164H200.544V106.363H199.248V98.8164H197.732V98.1914L199.248 97.7617V97.1914C199.248 96.4727 199.354 95.8893 199.568 95.4414C199.781 94.9883 200.091 94.6549 200.498 94.4414C200.904 94.2279 201.399 94.1211 201.982 94.1211C202.31 94.1211 202.61 94.1497 202.88 94.207C203.156 94.2643 203.399 94.3294 203.607 94.4023L203.271 95.4258C203.094 95.3685 202.893 95.3164 202.669 95.2695C202.451 95.2174 202.227 95.1914 201.998 95.1914C201.503 95.1914 201.136 95.3529 200.896 95.6758C200.662 95.9935 200.544 96.4935 200.544 97.1758V97.8008H202.677V98.8164ZM207.458 97.6602C208.479 97.6602 209.237 97.8893 209.732 98.3477C210.227 98.806 210.474 99.5378 210.474 100.543V106.363H209.529L209.279 105.098H209.216C208.977 105.41 208.727 105.673 208.466 105.887C208.206 106.095 207.904 106.254 207.56 106.363C207.222 106.467 206.805 106.52 206.31 106.52C205.789 106.52 205.326 106.428 204.919 106.246C204.518 106.064 204.201 105.788 203.966 105.418C203.737 105.048 203.623 104.579 203.623 104.012C203.623 103.158 203.961 102.501 204.638 102.043C205.315 101.585 206.347 101.335 207.732 101.293L209.208 101.23V100.707C209.208 99.9674 209.05 99.4492 208.732 99.1523C208.414 98.8555 207.966 98.707 207.388 98.707C206.94 98.707 206.513 98.7721 206.107 98.9023C205.701 99.0326 205.315 99.1862 204.951 99.3633L204.552 98.3789C204.938 98.181 205.38 98.0117 205.88 97.8711C206.38 97.7305 206.906 97.6602 207.458 97.6602ZM209.193 102.145L207.888 102.199C206.82 102.241 206.068 102.415 205.63 102.723C205.193 103.03 204.974 103.465 204.974 104.027C204.974 104.517 205.123 104.879 205.419 105.113C205.716 105.348 206.11 105.465 206.599 105.465C207.36 105.465 207.982 105.254 208.466 104.832C208.951 104.41 209.193 103.777 209.193 102.934V102.145ZM222.443 97.6445C223.386 97.6445 224.097 97.8919 224.576 98.3867C225.055 98.8763 225.294 99.6654 225.294 100.754V106.363H224.013V100.816C224.013 100.124 223.862 99.6055 223.56 99.2617C223.263 98.9128 222.82 98.7383 222.232 98.7383C221.404 98.7383 220.802 98.9779 220.427 99.457C220.052 99.9362 219.865 100.642 219.865 101.574V106.363H218.576V100.816C218.576 100.353 218.508 99.9674 218.373 99.6602C218.242 99.3529 218.044 99.1237 217.779 98.9727C217.518 98.8164 217.188 98.7383 216.787 98.7383C216.219 98.7383 215.763 98.8555 215.419 99.0898C215.076 99.3242 214.826 99.6732 214.669 100.137C214.518 100.595 214.443 101.16 214.443 101.832V106.363H213.146V97.8008H214.193L214.388 99.0117H214.458C214.63 98.7148 214.847 98.4648 215.107 98.2617C215.367 98.0586 215.659 97.9049 215.982 97.8008C216.305 97.6966 216.649 97.6445 217.013 97.6445C217.664 97.6445 218.208 97.7669 218.646 98.0117C219.089 98.2513 219.409 98.6185 219.607 99.1133H219.677C219.958 98.6185 220.344 98.2513 220.833 98.0117C221.323 97.7669 221.86 97.6445 222.443 97.6445ZM229.255 97.8008V106.363H227.958V97.8008H229.255ZM228.623 94.5977C228.836 94.5977 229.018 94.668 229.169 94.8086C229.326 94.944 229.404 95.1576 229.404 95.4492C229.404 95.7357 229.326 95.9492 229.169 96.0898C229.018 96.2305 228.836 96.3008 228.623 96.3008C228.399 96.3008 228.211 96.2305 228.06 96.0898C227.914 95.9492 227.841 95.7357 227.841 95.4492C227.841 95.1576 227.914 94.944 228.06 94.8086C228.211 94.668 228.399 94.5977 228.623 94.5977ZM233.31 106.363H232.005V94.207H233.31V106.363ZM237.349 97.8008V106.363H236.052V97.8008H237.349ZM236.716 94.5977C236.93 94.5977 237.112 94.668 237.263 94.8086C237.419 94.944 237.498 95.1576 237.498 95.4492C237.498 95.7357 237.419 95.9492 237.263 96.0898C237.112 96.2305 236.93 96.3008 236.716 96.3008C236.492 96.3008 236.305 96.2305 236.154 96.0898C236.008 95.9492 235.935 95.7357 235.935 95.4492C235.935 95.1576 236.008 94.944 236.154 94.8086C236.305 94.668 236.492 94.5977 236.716 94.5977ZM243.396 97.6445C244.125 97.6445 244.75 97.806 245.271 98.1289C245.792 98.4518 246.19 98.9049 246.466 99.4883C246.742 100.066 246.88 100.743 246.88 101.52V102.324H240.966C240.982 103.329 241.232 104.095 241.716 104.621C242.201 105.147 242.883 105.41 243.763 105.41C244.305 105.41 244.784 105.361 245.201 105.262C245.617 105.163 246.05 105.017 246.498 104.824V105.965C246.065 106.158 245.636 106.298 245.208 106.387C244.787 106.475 244.287 106.52 243.708 106.52C242.886 106.52 242.167 106.353 241.552 106.02C240.943 105.681 240.469 105.186 240.13 104.535C239.792 103.884 239.623 103.087 239.623 102.145C239.623 101.223 239.776 100.426 240.083 99.7539C240.396 99.0768 240.833 98.556 241.396 98.1914C241.964 97.8268 242.63 97.6445 243.396 97.6445ZM243.38 98.707C242.688 98.707 242.136 98.9336 241.724 99.3867C241.313 99.8398 241.068 100.473 240.99 101.285H245.521C245.516 100.775 245.435 100.327 245.279 99.9414C245.128 99.5508 244.896 99.2487 244.583 99.0352C244.271 98.8164 243.87 98.707 243.38 98.707ZM254.623 104.02C254.623 104.566 254.485 105.027 254.208 105.402C253.938 105.772 253.547 106.051 253.037 106.238C252.531 106.426 251.927 106.52 251.224 106.52C250.625 106.52 250.107 106.473 249.669 106.379C249.232 106.285 248.849 106.152 248.521 105.98V104.785C248.87 104.957 249.287 105.113 249.771 105.254C250.255 105.395 250.75 105.465 251.255 105.465C251.995 105.465 252.531 105.345 252.865 105.105C253.198 104.866 253.365 104.54 253.365 104.129C253.365 103.895 253.297 103.689 253.162 103.512C253.031 103.329 252.81 103.155 252.498 102.988C252.185 102.816 251.753 102.629 251.201 102.426C250.654 102.217 250.18 102.012 249.779 101.809C249.383 101.6 249.076 101.348 248.857 101.051C248.643 100.754 248.537 100.368 248.537 99.8945C248.537 99.1706 248.828 98.6159 249.412 98.2305C250 97.8398 250.771 97.6445 251.724 97.6445C252.24 97.6445 252.722 97.6966 253.169 97.8008C253.623 97.8997 254.044 98.0352 254.435 98.207L253.998 99.2461C253.643 99.0951 253.266 98.9674 252.865 98.8633C252.464 98.7591 252.055 98.707 251.638 98.707C251.039 98.707 250.578 98.806 250.255 99.0039C249.938 99.2018 249.779 99.4727 249.779 99.8164C249.779 100.082 249.852 100.301 249.998 100.473C250.149 100.645 250.388 100.806 250.716 100.957C251.044 101.108 251.477 101.285 252.013 101.488C252.55 101.686 253.013 101.892 253.404 102.105C253.794 102.314 254.094 102.569 254.302 102.871C254.516 103.168 254.623 103.551 254.623 104.02ZM262.162 94.207V97.8398C262.162 98.0482 262.156 98.2591 262.146 98.4727C262.136 98.681 262.117 98.8737 262.091 99.0508H262.177C262.354 98.7487 262.578 98.4961 262.849 98.293C263.125 98.0846 263.438 97.9284 263.787 97.8242C264.136 97.7148 264.505 97.6602 264.896 97.6602C265.583 97.6602 266.156 97.7695 266.615 97.9883C267.078 98.207 267.425 98.5456 267.654 99.0039C267.888 99.4622 268.005 100.056 268.005 100.785V106.363H266.724V100.871C266.724 100.158 266.56 99.6237 266.232 99.2695C265.909 98.9154 265.412 98.7383 264.74 98.7383C264.104 98.7383 263.597 98.8607 263.216 99.1055C262.841 99.3451 262.57 99.6992 262.404 100.168C262.242 100.637 262.162 101.21 262.162 101.887V106.363H260.865V94.207H262.162ZM273.88 97.6602C274.901 97.6602 275.659 97.8893 276.154 98.3477C276.649 98.806 276.896 99.5378 276.896 100.543V106.363H275.951L275.701 105.098H275.638C275.399 105.41 275.149 105.673 274.888 105.887C274.628 106.095 274.326 106.254 273.982 106.363C273.643 106.467 273.227 106.52 272.732 106.52C272.211 106.52 271.748 106.428 271.341 106.246C270.94 106.064 270.623 105.788 270.388 105.418C270.159 105.048 270.044 104.579 270.044 104.012C270.044 103.158 270.383 102.501 271.06 102.043C271.737 101.585 272.768 101.335 274.154 101.293L275.63 101.23V100.707C275.63 99.9674 275.472 99.4492 275.154 99.1523C274.836 98.8555 274.388 98.707 273.81 98.707C273.362 98.707 272.935 98.7721 272.529 98.9023C272.123 99.0326 271.737 99.1862 271.373 99.3633L270.974 98.3789C271.36 98.181 271.802 98.0117 272.302 97.8711C272.802 97.7305 273.328 97.6602 273.88 97.6602ZM275.615 102.145L274.31 102.199C273.242 102.241 272.49 102.415 272.052 102.723C271.615 103.03 271.396 103.465 271.396 104.027C271.396 104.517 271.544 104.879 271.841 105.113C272.138 105.348 272.531 105.465 273.021 105.465C273.781 105.465 274.404 105.254 274.888 104.832C275.373 104.41 275.615 103.777 275.615 102.934V102.145ZM281.451 106.363L278.201 97.8008H279.591L281.474 102.98C281.604 103.335 281.737 103.725 281.873 104.152C282.008 104.579 282.102 104.923 282.154 105.184H282.208C282.271 104.923 282.375 104.579 282.521 104.152C282.667 103.72 282.8 103.329 282.919 102.98L284.802 97.8008H286.193L282.935 106.363H281.451ZM290.865 97.6445C291.594 97.6445 292.219 97.806 292.74 98.1289C293.261 98.4518 293.659 98.9049 293.935 99.4883C294.211 100.066 294.349 100.743 294.349 101.52V102.324H288.435C288.451 103.329 288.701 104.095 289.185 104.621C289.669 105.147 290.352 105.41 291.232 105.41C291.774 105.41 292.253 105.361 292.669 105.262C293.086 105.163 293.518 105.017 293.966 104.824V105.965C293.534 106.158 293.104 106.298 292.677 106.387C292.255 106.475 291.755 106.52 291.177 106.52C290.354 106.52 289.636 106.353 289.021 106.02C288.412 105.681 287.938 105.186 287.599 104.535C287.261 103.884 287.091 103.087 287.091 102.145C287.091 101.223 287.245 100.426 287.552 99.7539C287.865 99.0768 288.302 98.556 288.865 98.1914C289.432 97.8268 290.099 97.6445 290.865 97.6445ZM290.849 98.707C290.156 98.707 289.604 98.9336 289.193 99.3867C288.781 99.8398 288.537 100.473 288.458 101.285H292.99C292.985 100.775 292.904 100.327 292.748 99.9414C292.597 99.5508 292.365 99.2487 292.052 99.0352C291.74 98.8164 291.339 98.707 290.849 98.707ZM304.521 98.8164H302.388V106.363H301.091V98.8164H299.576V98.1914L301.091 97.7617V97.1914C301.091 96.4727 301.198 95.8893 301.412 95.4414C301.625 94.9883 301.935 94.6549 302.341 94.4414C302.748 94.2279 303.242 94.1211 303.826 94.1211C304.154 94.1211 304.453 94.1497 304.724 94.207C305 94.2643 305.242 94.3294 305.451 94.4023L305.115 95.4258C304.938 95.3685 304.737 95.3164 304.513 95.2695C304.294 95.2174 304.07 95.1914 303.841 95.1914C303.347 95.1914 302.979 95.3529 302.74 95.6758C302.505 95.9935 302.388 96.4935 302.388 97.1758V97.8008H304.521V98.8164ZM313.482 102.066C313.482 102.77 313.391 103.397 313.208 103.949C313.026 104.501 312.763 104.967 312.419 105.348C312.076 105.728 311.659 106.02 311.169 106.223C310.685 106.421 310.136 106.52 309.521 106.52C308.948 106.52 308.422 106.421 307.943 106.223C307.469 106.02 307.057 105.728 306.708 105.348C306.365 104.967 306.097 104.501 305.904 103.949C305.716 103.397 305.623 102.77 305.623 102.066C305.623 101.129 305.781 100.332 306.099 99.6758C306.417 99.0143 306.87 98.5117 307.458 98.168C308.052 97.819 308.758 97.6445 309.576 97.6445C310.357 97.6445 311.039 97.819 311.623 98.168C312.211 98.5169 312.667 99.0221 312.99 99.6836C313.318 100.34 313.482 101.134 313.482 102.066ZM306.966 102.066C306.966 102.754 307.057 103.35 307.24 103.855C307.422 104.361 307.703 104.751 308.083 105.027C308.464 105.303 308.953 105.441 309.552 105.441C310.146 105.441 310.633 105.303 311.013 105.027C311.399 104.751 311.682 104.361 311.865 103.855C312.047 103.35 312.138 102.754 312.138 102.066C312.138 101.384 312.047 100.796 311.865 100.301C311.682 99.8008 311.401 99.4154 311.021 99.1445C310.641 98.8737 310.149 98.7383 309.544 98.7383C308.654 98.7383 308 99.0326 307.583 99.6211C307.172 100.21 306.966 101.025 306.966 102.066ZM322.794 97.8008V106.363H321.732L321.544 105.16H321.474C321.297 105.457 321.068 105.707 320.787 105.91C320.505 106.113 320.188 106.264 319.833 106.363C319.485 106.467 319.112 106.52 318.716 106.52C318.039 106.52 317.472 106.41 317.013 106.191C316.555 105.973 316.208 105.634 315.974 105.176C315.745 104.717 315.63 104.129 315.63 103.41V97.8008H316.943V103.316C316.943 104.03 317.104 104.564 317.427 104.918C317.75 105.267 318.242 105.441 318.904 105.441C319.539 105.441 320.044 105.322 320.419 105.082C320.8 104.842 321.073 104.491 321.24 104.027C321.406 103.559 321.49 102.986 321.49 102.309V97.8008H322.794ZM329.591 97.6445C330.607 97.6445 331.375 97.8945 331.896 98.3945C332.417 98.8893 332.677 99.6862 332.677 100.785V106.363H331.396V100.871C331.396 100.158 331.232 99.6237 330.904 99.2695C330.581 98.9154 330.083 98.7383 329.412 98.7383C328.464 98.7383 327.797 99.0065 327.412 99.543C327.026 100.079 326.833 100.858 326.833 101.879V106.363H325.537V97.8008H326.583L326.779 99.0352H326.849C327.031 98.7331 327.263 98.4805 327.544 98.2773C327.826 98.069 328.141 97.9128 328.49 97.8086C328.839 97.6992 329.206 97.6445 329.591 97.6445ZM338.396 106.52C337.313 106.52 336.453 106.15 335.818 105.41C335.188 104.671 334.873 103.572 334.873 102.113C334.873 100.639 335.195 99.5273 335.841 98.7773C336.487 98.0221 337.347 97.6445 338.419 97.6445C338.873 97.6445 339.268 97.7044 339.607 97.8242C339.945 97.944 340.237 98.1055 340.482 98.3086C340.727 98.5065 340.932 98.7331 341.099 98.9883H341.193C341.172 98.8268 341.151 98.6055 341.13 98.3242C341.11 98.043 341.099 97.8138 341.099 97.6367V94.207H342.396V106.363H341.349L341.154 105.145H341.099C340.938 105.4 340.732 105.632 340.482 105.84C340.237 106.048 339.943 106.215 339.599 106.34C339.261 106.46 338.86 106.52 338.396 106.52ZM338.599 105.441C339.516 105.441 340.164 105.181 340.544 104.66C340.925 104.139 341.115 103.366 341.115 102.34V102.105C341.115 101.017 340.932 100.181 340.568 99.5977C340.208 99.0143 339.552 98.7227 338.599 98.7227C337.802 98.7227 337.206 99.0299 336.81 99.6445C336.414 100.254 336.216 101.087 336.216 102.145C336.216 103.197 336.412 104.009 336.802 104.582C337.198 105.155 337.797 105.441 338.599 105.441ZM352.068 105.457C352.281 105.457 352.5 105.439 352.724 105.402C352.948 105.366 353.13 105.322 353.271 105.27V106.277C353.12 106.345 352.909 106.402 352.638 106.449C352.373 106.496 352.112 106.52 351.857 106.52C351.404 106.52 350.992 106.441 350.623 106.285C350.253 106.124 349.956 105.853 349.732 105.473C349.513 105.092 349.404 104.566 349.404 103.895V98.8164H348.185V98.1836L349.412 97.6758L349.927 95.8164H350.708V97.8008H353.216V98.8164H350.708V103.855C350.708 104.392 350.831 104.793 351.076 105.059C351.326 105.324 351.656 105.457 352.068 105.457ZM356.302 94.207V97.8398C356.302 98.0482 356.297 98.2591 356.287 98.4727C356.276 98.681 356.258 98.8737 356.232 99.0508H356.318C356.495 98.7487 356.719 98.4961 356.99 98.293C357.266 98.0846 357.578 97.9284 357.927 97.8242C358.276 97.7148 358.646 97.6602 359.037 97.6602C359.724 97.6602 360.297 97.7695 360.755 97.9883C361.219 98.207 361.565 98.5456 361.794 99.0039C362.029 99.4622 362.146 100.056 362.146 100.785V106.363H360.865V100.871C360.865 100.158 360.701 99.6237 360.373 99.2695C360.05 98.9154 359.552 98.7383 358.88 98.7383C358.245 98.7383 357.737 98.8607 357.357 99.1055C356.982 99.3451 356.711 99.6992 356.544 100.168C356.383 100.637 356.302 101.21 356.302 101.887V106.363H355.005V94.207H356.302ZM368.115 97.6445C368.844 97.6445 369.469 97.806 369.99 98.1289C370.511 98.4518 370.909 98.9049 371.185 99.4883C371.461 100.066 371.599 100.743 371.599 101.52V102.324H365.685C365.701 103.329 365.951 104.095 366.435 104.621C366.919 105.147 367.602 105.41 368.482 105.41C369.024 105.41 369.503 105.361 369.919 105.262C370.336 105.163 370.768 105.017 371.216 104.824V105.965C370.784 106.158 370.354 106.298 369.927 106.387C369.505 106.475 369.005 106.52 368.427 106.52C367.604 106.52 366.886 106.353 366.271 106.02C365.662 105.681 365.188 105.186 364.849 104.535C364.511 103.884 364.341 103.087 364.341 102.145C364.341 101.223 364.495 100.426 364.802 99.7539C365.115 99.0768 365.552 98.556 366.115 98.1914C366.682 97.8268 367.349 97.6445 368.115 97.6445ZM368.099 98.707C367.406 98.707 366.854 98.9336 366.443 99.3867C366.031 99.8398 365.787 100.473 365.708 101.285H370.24C370.235 100.775 370.154 100.327 369.998 99.9414C369.847 99.5508 369.615 99.2487 369.302 99.0352C368.99 98.8164 368.589 98.707 368.099 98.707ZM375.099 97.8008V106.363H373.802V97.8008H375.099ZM374.466 94.5977C374.68 94.5977 374.862 94.668 375.013 94.8086C375.169 94.944 375.248 95.1576 375.248 95.4492C375.248 95.7357 375.169 95.9492 375.013 96.0898C374.862 96.2305 374.68 96.3008 374.466 96.3008C374.242 96.3008 374.055 96.2305 373.904 96.0898C373.758 95.9492 373.685 95.7357 373.685 95.4492C373.685 95.1576 373.758 94.944 373.904 94.8086C374.055 94.668 374.242 94.5977 374.466 94.5977ZM381.74 97.6445C381.912 97.6445 382.091 97.6549 382.279 97.6758C382.466 97.6914 382.633 97.7148 382.779 97.7461L382.615 98.9492C382.474 98.9128 382.318 98.8841 382.146 98.8633C381.974 98.8424 381.813 98.832 381.662 98.832C381.318 98.832 380.992 98.9023 380.685 99.043C380.383 99.1784 380.117 99.3763 379.888 99.6367C379.659 99.8919 379.479 100.202 379.349 100.566C379.219 100.926 379.154 101.327 379.154 101.77V106.363H377.849V97.8008H378.927L379.068 99.3789H379.123C379.3 99.0612 379.513 98.7721 379.763 98.5117C380.013 98.2461 380.302 98.0352 380.63 97.8789C380.964 97.7227 381.333 97.6445 381.74 97.6445ZM391.599 106.52C390.516 106.52 389.656 106.15 389.021 105.41C388.391 104.671 388.076 103.572 388.076 102.113C388.076 100.639 388.399 99.5273 389.044 98.7773C389.69 98.0221 390.55 97.6445 391.623 97.6445C392.076 97.6445 392.472 97.7044 392.81 97.8242C393.149 97.944 393.44 98.1055 393.685 98.3086C393.93 98.5065 394.136 98.7331 394.302 98.9883H394.396C394.375 98.8268 394.354 98.6055 394.333 98.3242C394.313 98.043 394.302 97.8138 394.302 97.6367V94.207H395.599V106.363H394.552L394.357 105.145H394.302C394.141 105.4 393.935 105.632 393.685 105.84C393.44 106.048 393.146 106.215 392.802 106.34C392.464 106.46 392.063 106.52 391.599 106.52ZM391.802 105.441C392.719 105.441 393.367 105.181 393.748 104.66C394.128 104.139 394.318 103.366 394.318 102.34V102.105C394.318 101.017 394.136 100.181 393.771 99.5977C393.412 99.0143 392.755 98.7227 391.802 98.7227C391.005 98.7227 390.409 99.0299 390.013 99.6445C389.617 100.254 389.419 101.087 389.419 102.145C389.419 103.197 389.615 104.009 390.005 104.582C390.401 105.155 391 105.441 391.802 105.441ZM402.24 97.6445C402.412 97.6445 402.591 97.6549 402.779 97.6758C402.966 97.6914 403.133 97.7148 403.279 97.7461L403.115 98.9492C402.974 98.9128 402.818 98.8841 402.646 98.8633C402.474 98.8424 402.313 98.832 402.162 98.832C401.818 98.832 401.492 98.9023 401.185 99.043C400.883 99.1784 400.617 99.3763 400.388 99.6367C400.159 99.8919 399.979 100.202 399.849 100.566C399.719 100.926 399.654 101.327 399.654 101.77V106.363H398.349V97.8008H399.427L399.568 99.3789H399.623C399.8 99.0612 400.013 98.7721 400.263 98.5117C400.513 98.2461 400.802 98.0352 401.13 97.8789C401.464 97.7227 401.833 97.6445 402.24 97.6445ZM408.193 97.6445C408.922 97.6445 409.547 97.806 410.068 98.1289C410.589 98.4518 410.987 98.9049 411.263 99.4883C411.539 100.066 411.677 100.743 411.677 101.52V102.324H405.763C405.779 103.329 406.029 104.095 406.513 104.621C406.998 105.147 407.68 105.41 408.56 105.41C409.102 105.41 409.581 105.361 409.998 105.262C410.414 105.163 410.847 105.017 411.294 104.824V105.965C410.862 106.158 410.432 106.298 410.005 106.387C409.583 106.475 409.083 106.52 408.505 106.52C407.682 106.52 406.964 106.353 406.349 106.02C405.74 105.681 405.266 105.186 404.927 104.535C404.589 103.884 404.419 103.087 404.419 102.145C404.419 101.223 404.573 100.426 404.88 99.7539C405.193 99.0768 405.63 98.556 406.193 98.1914C406.761 97.8268 407.427 97.6445 408.193 97.6445ZM408.177 98.707C407.485 98.707 406.932 98.9336 406.521 99.3867C406.11 99.8398 405.865 100.473 405.787 101.285H410.318C410.313 100.775 410.232 100.327 410.076 99.9414C409.925 99.5508 409.693 99.2487 409.38 99.0352C409.068 98.8164 408.667 98.707 408.177 98.707ZM417.083 97.6602C418.104 97.6602 418.862 97.8893 419.357 98.3477C419.852 98.806 420.099 99.5378 420.099 100.543V106.363H419.154L418.904 105.098H418.841C418.602 105.41 418.352 105.673 418.091 105.887C417.831 106.095 417.529 106.254 417.185 106.363C416.847 106.467 416.43 106.52 415.935 106.52C415.414 106.52 414.951 106.428 414.544 106.246C414.143 106.064 413.826 105.788 413.591 105.418C413.362 105.048 413.248 104.579 413.248 104.012C413.248 103.158 413.586 102.501 414.263 102.043C414.94 101.585 415.972 101.335 417.357 101.293L418.833 101.23V100.707C418.833 99.9674 418.675 99.4492 418.357 99.1523C418.039 98.8555 417.591 98.707 417.013 98.707C416.565 98.707 416.138 98.7721 415.732 98.9023C415.326 99.0326 414.94 99.1862 414.576 99.3633L414.177 98.3789C414.563 98.181 415.005 98.0117 415.505 97.8711C416.005 97.7305 416.531 97.6602 417.083 97.6602ZM418.818 102.145L417.513 102.199C416.445 102.241 415.693 102.415 415.255 102.723C414.818 103.03 414.599 103.465 414.599 104.027C414.599 104.517 414.748 104.879 415.044 105.113C415.341 105.348 415.735 105.465 416.224 105.465C416.985 105.465 417.607 105.254 418.091 104.832C418.576 104.41 418.818 103.777 418.818 102.934V102.145ZM432.068 97.6445C433.011 97.6445 433.722 97.8919 434.201 98.3867C434.68 98.8763 434.919 99.6654 434.919 100.754V106.363H433.638V100.816C433.638 100.124 433.487 99.6055 433.185 99.2617C432.888 98.9128 432.445 98.7383 431.857 98.7383C431.029 98.7383 430.427 98.9779 430.052 99.457C429.677 99.9362 429.49 100.642 429.49 101.574V106.363H428.201V100.816C428.201 100.353 428.133 99.9674 427.998 99.6602C427.867 99.3529 427.669 99.1237 427.404 98.9727C427.143 98.8164 426.813 98.7383 426.412 98.7383C425.844 98.7383 425.388 98.8555 425.044 99.0898C424.701 99.3242 424.451 99.6732 424.294 100.137C424.143 100.595 424.068 101.16 424.068 101.832V106.363H422.771V97.8008H423.818L424.013 99.0117H424.083C424.255 98.7148 424.472 98.4648 424.732 98.2617C424.992 98.0586 425.284 97.9049 425.607 97.8008C425.93 97.6966 426.274 97.6445 426.638 97.6445C427.289 97.6445 427.833 97.7669 428.271 98.0117C428.714 98.2513 429.034 98.6185 429.232 99.1133H429.302C429.583 98.6185 429.969 98.2513 430.458 98.0117C430.948 97.7669 431.485 97.6445 432.068 97.6445ZM443.037 94.207V97.8398C443.037 98.0482 443.031 98.2591 443.021 98.4727C443.011 98.681 442.992 98.8737 442.966 99.0508H443.052C443.229 98.7487 443.453 98.4961 443.724 98.293C444 98.0846 444.313 97.9284 444.662 97.8242C445.011 97.7148 445.38 97.6602 445.771 97.6602C446.458 97.6602 447.031 97.7695 447.49 97.9883C447.953 98.207 448.3 98.5456 448.529 99.0039C448.763 99.4622 448.88 100.056 448.88 100.785V106.363H447.599V100.871C447.599 100.158 447.435 99.6237 447.107 99.2695C446.784 98.9154 446.287 98.7383 445.615 98.7383C444.979 98.7383 444.472 98.8607 444.091 99.1055C443.716 99.3451 443.445 99.6992 443.279 100.168C443.117 100.637 443.037 101.21 443.037 101.887V106.363H441.74V94.207H443.037ZM458.935 102.066C458.935 102.77 458.844 103.397 458.662 103.949C458.479 104.501 458.216 104.967 457.873 105.348C457.529 105.728 457.112 106.02 456.623 106.223C456.138 106.421 455.589 106.52 454.974 106.52C454.401 106.52 453.875 106.421 453.396 106.223C452.922 106.02 452.511 105.728 452.162 105.348C451.818 104.967 451.55 104.501 451.357 103.949C451.169 103.397 451.076 102.77 451.076 102.066C451.076 101.129 451.235 100.332 451.552 99.6758C451.87 99.0143 452.323 98.5117 452.912 98.168C453.505 97.819 454.211 97.6445 455.029 97.6445C455.81 97.6445 456.492 97.819 457.076 98.168C457.664 98.5169 458.12 99.0221 458.443 99.6836C458.771 100.34 458.935 101.134 458.935 102.066ZM452.419 102.066C452.419 102.754 452.511 103.35 452.693 103.855C452.875 104.361 453.156 104.751 453.537 105.027C453.917 105.303 454.406 105.441 455.005 105.441C455.599 105.441 456.086 105.303 456.466 105.027C456.852 104.751 457.136 104.361 457.318 103.855C457.5 103.35 457.591 102.754 457.591 102.066C457.591 101.384 457.5 100.796 457.318 100.301C457.136 99.8008 456.854 99.4154 456.474 99.1445C456.094 98.8737 455.602 98.7383 454.998 98.7383C454.107 98.7383 453.453 99.0326 453.037 99.6211C452.625 100.21 452.419 101.025 452.419 102.066ZM470.474 97.6445C471.417 97.6445 472.128 97.8919 472.607 98.3867C473.086 98.8763 473.326 99.6654 473.326 100.754V106.363H472.044V100.816C472.044 100.124 471.893 99.6055 471.591 99.2617C471.294 98.9128 470.852 98.7383 470.263 98.7383C469.435 98.7383 468.833 98.9779 468.458 99.457C468.083 99.9362 467.896 100.642 467.896 101.574V106.363H466.607V100.816C466.607 100.353 466.539 99.9674 466.404 99.6602C466.274 99.3529 466.076 99.1237 465.81 98.9727C465.55 98.8164 465.219 98.7383 464.818 98.7383C464.25 98.7383 463.794 98.8555 463.451 99.0898C463.107 99.3242 462.857 99.6732 462.701 100.137C462.55 100.595 462.474 101.16 462.474 101.832V106.363H461.177V97.8008H462.224L462.419 99.0117H462.49C462.662 98.7148 462.878 98.4648 463.138 98.2617C463.399 98.0586 463.69 97.9049 464.013 97.8008C464.336 97.6966 464.68 97.6445 465.044 97.6445C465.695 97.6445 466.24 97.7669 466.677 98.0117C467.12 98.2513 467.44 98.6185 467.638 99.1133H467.708C467.99 98.6185 468.375 98.2513 468.865 98.0117C469.354 97.7669 469.891 97.6445 470.474 97.6445ZM479.287 97.6445C480.016 97.6445 480.641 97.806 481.162 98.1289C481.682 98.4518 482.081 98.9049 482.357 99.4883C482.633 100.066 482.771 100.743 482.771 101.52V102.324H476.857C476.873 103.329 477.123 104.095 477.607 104.621C478.091 105.147 478.774 105.41 479.654 105.41C480.195 105.41 480.675 105.361 481.091 105.262C481.508 105.163 481.94 105.017 482.388 104.824V105.965C481.956 106.158 481.526 106.298 481.099 106.387C480.677 106.475 480.177 106.52 479.599 106.52C478.776 106.52 478.057 106.353 477.443 106.02C476.833 105.681 476.36 105.186 476.021 104.535C475.682 103.884 475.513 103.087 475.513 102.145C475.513 101.223 475.667 100.426 475.974 99.7539C476.287 99.0768 476.724 98.556 477.287 98.1914C477.854 97.8268 478.521 97.6445 479.287 97.6445ZM479.271 98.707C478.578 98.707 478.026 98.9336 477.615 99.3867C477.203 99.8398 476.958 100.473 476.88 101.285H481.412C481.406 100.775 481.326 100.327 481.169 99.9414C481.018 99.5508 480.787 99.2487 480.474 99.0352C480.162 98.8164 479.761 98.707 479.271 98.707ZM490.513 104.02C490.513 104.566 490.375 105.027 490.099 105.402C489.828 105.772 489.438 106.051 488.927 106.238C488.422 106.426 487.818 106.52 487.115 106.52C486.516 106.52 485.998 106.473 485.56 106.379C485.123 106.285 484.74 106.152 484.412 105.98V104.785C484.761 104.957 485.177 105.113 485.662 105.254C486.146 105.395 486.641 105.465 487.146 105.465C487.886 105.465 488.422 105.345 488.755 105.105C489.089 104.866 489.255 104.54 489.255 104.129C489.255 103.895 489.188 103.689 489.052 103.512C488.922 103.329 488.701 103.155 488.388 102.988C488.076 102.816 487.643 102.629 487.091 102.426C486.544 102.217 486.07 102.012 485.669 101.809C485.274 101.6 484.966 101.348 484.748 101.051C484.534 100.754 484.427 100.368 484.427 99.8945C484.427 99.1706 484.719 98.6159 485.302 98.2305C485.891 97.8398 486.662 97.6445 487.615 97.6445C488.13 97.6445 488.612 97.6966 489.06 97.8008C489.513 97.8997 489.935 98.0352 490.326 98.207L489.888 99.2461C489.534 99.0951 489.156 98.9674 488.755 98.8633C488.354 98.7591 487.945 98.707 487.529 98.707C486.93 98.707 486.469 98.806 486.146 99.0039C485.828 99.2018 485.669 99.4727 485.669 99.8164C485.669 100.082 485.742 100.301 485.888 100.473C486.039 100.645 486.279 100.806 486.607 100.957C486.935 101.108 487.367 101.285 487.904 101.488C488.44 101.686 488.904 101.892 489.294 102.105C489.685 102.314 489.985 102.569 490.193 102.871C490.406 103.168 490.513 103.551 490.513 104.02ZM499.958 97.6602C500.979 97.6602 501.737 97.8893 502.232 98.3477C502.727 98.806 502.974 99.5378 502.974 100.543V106.363H502.029L501.779 105.098H501.716C501.477 105.41 501.227 105.673 500.966 105.887C500.706 106.095 500.404 106.254 500.06 106.363C499.722 106.467 499.305 106.52 498.81 106.52C498.289 106.52 497.826 106.428 497.419 106.246C497.018 106.064 496.701 105.788 496.466 105.418C496.237 105.048 496.123 104.579 496.123 104.012C496.123 103.158 496.461 102.501 497.138 102.043C497.815 101.585 498.847 101.335 500.232 101.293L501.708 101.23V100.707C501.708 99.9674 501.55 99.4492 501.232 99.1523C500.914 98.8555 500.466 98.707 499.888 98.707C499.44 98.707 499.013 98.7721 498.607 98.9023C498.201 99.0326 497.815 99.1862 497.451 99.3633L497.052 98.3789C497.438 98.181 497.88 98.0117 498.38 97.8711C498.88 97.7305 499.406 97.6602 499.958 97.6602ZM501.693 102.145L500.388 102.199C499.32 102.241 498.568 102.415 498.13 102.723C497.693 103.03 497.474 103.465 497.474 104.027C497.474 104.517 497.623 104.879 497.919 105.113C498.216 105.348 498.61 105.465 499.099 105.465C499.86 105.465 500.482 105.254 500.966 104.832C501.451 104.41 501.693 103.777 501.693 102.934V102.145ZM509.701 97.6445C510.716 97.6445 511.485 97.8945 512.005 98.3945C512.526 98.8893 512.787 99.6862 512.787 100.785V106.363H511.505V100.871C511.505 100.158 511.341 99.6237 511.013 99.2695C510.69 98.9154 510.193 98.7383 509.521 98.7383C508.573 98.7383 507.906 99.0065 507.521 99.543C507.136 100.079 506.943 100.858 506.943 101.879V106.363H505.646V97.8008H506.693L506.888 99.0352H506.958C507.141 98.7331 507.373 98.4805 507.654 98.2773C507.935 98.069 508.25 97.9128 508.599 97.8086C508.948 97.6992 509.315 97.6445 509.701 97.6445ZM518.505 106.52C517.422 106.52 516.563 106.15 515.927 105.41C515.297 104.671 514.982 103.572 514.982 102.113C514.982 100.639 515.305 99.5273 515.951 98.7773C516.597 98.0221 517.456 97.6445 518.529 97.6445C518.982 97.6445 519.378 97.7044 519.716 97.8242C520.055 97.944 520.347 98.1055 520.591 98.3086C520.836 98.5065 521.042 98.7331 521.208 98.9883H521.302C521.281 98.8268 521.261 98.6055 521.24 98.3242C521.219 98.043 521.208 97.8138 521.208 97.6367V94.207H522.505V106.363H521.458L521.263 105.145H521.208C521.047 105.4 520.841 105.632 520.591 105.84C520.347 106.048 520.052 106.215 519.708 106.34C519.37 106.46 518.969 106.52 518.505 106.52ZM518.708 105.441C519.625 105.441 520.274 105.181 520.654 104.66C521.034 104.139 521.224 103.366 521.224 102.34V102.105C521.224 101.017 521.042 100.181 520.677 99.5977C520.318 99.0143 519.662 98.7227 518.708 98.7227C517.912 98.7227 517.315 99.0299 516.919 99.6445C516.524 100.254 516.326 101.087 516.326 102.145C516.326 103.197 516.521 104.009 516.912 104.582C517.307 105.155 517.906 105.441 518.708 105.441ZM532.615 97.6602C533.636 97.6602 534.393 97.8893 534.888 98.3477C535.383 98.806 535.63 99.5378 535.63 100.543V106.363H534.685L534.435 105.098H534.373C534.133 105.41 533.883 105.673 533.623 105.887C533.362 106.095 533.06 106.254 532.716 106.363C532.378 106.467 531.961 106.52 531.466 106.52C530.945 106.52 530.482 106.428 530.076 106.246C529.675 106.064 529.357 105.788 529.123 105.418C528.893 105.048 528.779 104.579 528.779 104.012C528.779 103.158 529.117 102.501 529.794 102.043C530.472 101.585 531.503 101.335 532.888 101.293L534.365 101.23V100.707C534.365 99.9674 534.206 99.4492 533.888 99.1523C533.57 98.8555 533.123 98.707 532.544 98.707C532.097 98.707 531.669 98.7721 531.263 98.9023C530.857 99.0326 530.472 99.1862 530.107 99.3633L529.708 98.3789C530.094 98.181 530.537 98.0117 531.037 97.8711C531.537 97.7305 532.063 97.6602 532.615 97.6602ZM534.349 102.145L533.044 102.199C531.977 102.241 531.224 102.415 530.787 102.723C530.349 103.03 530.13 103.465 530.13 104.027C530.13 104.517 530.279 104.879 530.576 105.113C530.873 105.348 531.266 105.465 531.755 105.465C532.516 105.465 533.138 105.254 533.623 104.832C534.107 104.41 534.349 103.777 534.349 102.934V102.145ZM541.068 105.457C541.281 105.457 541.5 105.439 541.724 105.402C541.948 105.366 542.13 105.322 542.271 105.27V106.277C542.12 106.345 541.909 106.402 541.638 106.449C541.373 106.496 541.112 106.52 540.857 106.52C540.404 106.52 539.992 106.441 539.623 106.285C539.253 106.124 538.956 105.853 538.732 105.473C538.513 105.092 538.404 104.566 538.404 103.895V98.8164H537.185V98.1836L538.412 97.6758L538.927 95.8164H539.708V97.8008H542.216V98.8164H539.708V103.855C539.708 104.392 539.831 104.793 540.076 105.059C540.326 105.324 540.656 105.457 541.068 105.457ZM553.24 95.9492C552.61 95.9492 552.042 96.0586 551.537 96.2773C551.037 96.4909 550.61 96.8034 550.255 97.2148C549.906 97.6211 549.638 98.1133 549.451 98.6914C549.263 99.2695 549.169 99.9206 549.169 100.645C549.169 101.603 549.318 102.436 549.615 103.145C549.917 103.848 550.365 104.392 550.958 104.777C551.557 105.163 552.305 105.355 553.201 105.355C553.711 105.355 554.19 105.314 554.638 105.23C555.091 105.142 555.531 105.033 555.958 104.902V106.059C555.542 106.215 555.104 106.329 554.646 106.402C554.188 106.48 553.643 106.52 553.013 106.52C551.852 106.52 550.88 106.28 550.099 105.801C549.323 105.316 548.74 104.634 548.349 103.754C547.964 102.874 547.771 101.835 547.771 100.637C547.771 99.7721 547.891 98.9831 548.13 98.2695C548.375 97.5508 548.729 96.931 549.193 96.4102C549.662 95.8893 550.235 95.4883 550.912 95.207C551.594 94.9206 552.375 94.7773 553.255 94.7773C553.833 94.7773 554.391 94.8346 554.927 94.9492C555.464 95.0638 555.948 95.2279 556.38 95.4414L555.849 96.5664C555.485 96.3997 555.083 96.2565 554.646 96.1367C554.214 96.0117 553.745 95.9492 553.24 95.9492ZM561.443 97.6602C562.464 97.6602 563.222 97.8893 563.716 98.3477C564.211 98.806 564.458 99.5378 564.458 100.543V106.363H563.513L563.263 105.098H563.201C562.961 105.41 562.711 105.673 562.451 105.887C562.19 106.095 561.888 106.254 561.544 106.363C561.206 106.467 560.789 106.52 560.294 106.52C559.774 106.52 559.31 106.428 558.904 106.246C558.503 106.064 558.185 105.788 557.951 105.418C557.722 105.048 557.607 104.579 557.607 104.012C557.607 103.158 557.945 102.501 558.623 102.043C559.3 101.585 560.331 101.335 561.716 101.293L563.193 101.23V100.707C563.193 99.9674 563.034 99.4492 562.716 99.1523C562.399 98.8555 561.951 98.707 561.373 98.707C560.925 98.707 560.498 98.7721 560.091 98.9023C559.685 99.0326 559.3 99.1862 558.935 99.3633L558.537 98.3789C558.922 98.181 559.365 98.0117 559.865 97.8711C560.365 97.7305 560.891 97.6602 561.443 97.6602ZM563.177 102.145L561.873 102.199C560.805 102.241 560.052 102.415 559.615 102.723C559.177 103.03 558.958 103.465 558.958 104.027C558.958 104.517 559.107 104.879 559.404 105.113C559.701 105.348 560.094 105.465 560.583 105.465C561.344 105.465 561.966 105.254 562.451 104.832C562.935 104.41 563.177 103.777 563.177 102.934V102.145ZM572.669 104.02C572.669 104.566 572.531 105.027 572.255 105.402C571.985 105.772 571.594 106.051 571.083 106.238C570.578 106.426 569.974 106.52 569.271 106.52C568.672 106.52 568.154 106.473 567.716 106.379C567.279 106.285 566.896 106.152 566.568 105.98V104.785C566.917 104.957 567.333 105.113 567.818 105.254C568.302 105.395 568.797 105.465 569.302 105.465C570.042 105.465 570.578 105.345 570.912 105.105C571.245 104.866 571.412 104.54 571.412 104.129C571.412 103.895 571.344 103.689 571.208 103.512C571.078 103.329 570.857 103.155 570.544 102.988C570.232 102.816 569.8 102.629 569.248 102.426C568.701 102.217 568.227 102.012 567.826 101.809C567.43 101.6 567.123 101.348 566.904 101.051C566.69 100.754 566.583 100.368 566.583 99.8945C566.583 99.1706 566.875 98.6159 567.458 98.2305C568.047 97.8398 568.818 97.6445 569.771 97.6445C570.287 97.6445 570.768 97.6966 571.216 97.8008C571.669 97.8997 572.091 98.0352 572.482 98.207L572.044 99.2461C571.69 99.0951 571.313 98.9674 570.912 98.8633C570.511 98.7591 570.102 98.707 569.685 98.707C569.086 98.707 568.625 98.806 568.302 99.0039C567.985 99.2018 567.826 99.4727 567.826 99.8164C567.826 100.082 567.899 100.301 568.044 100.473C568.195 100.645 568.435 100.806 568.763 100.957C569.091 101.108 569.524 101.285 570.06 101.488C570.597 101.686 571.06 101.892 571.451 102.105C571.841 102.314 572.141 102.569 572.349 102.871C572.563 103.168 572.669 103.551 572.669 104.02ZM577.958 97.6602C578.979 97.6602 579.737 97.8893 580.232 98.3477C580.727 98.806 580.974 99.5378 580.974 100.543V106.363H580.029L579.779 105.098H579.716C579.477 105.41 579.227 105.673 578.966 105.887C578.706 106.095 578.404 106.254 578.06 106.363C577.722 106.467 577.305 106.52 576.81 106.52C576.289 106.52 575.826 106.428 575.419 106.246C575.018 106.064 574.701 105.788 574.466 105.418C574.237 105.048 574.123 104.579 574.123 104.012C574.123 103.158 574.461 102.501 575.138 102.043C575.815 101.585 576.847 101.335 578.232 101.293L579.708 101.23V100.707C579.708 99.9674 579.55 99.4492 579.232 99.1523C578.914 98.8555 578.466 98.707 577.888 98.707C577.44 98.707 577.013 98.7721 576.607 98.9023C576.201 99.0326 575.815 99.1862 575.451 99.3633L575.052 98.3789C575.438 98.181 575.88 98.0117 576.38 97.8711C576.88 97.7305 577.406 97.6602 577.958 97.6602ZM579.693 102.145L578.388 102.199C577.32 102.241 576.568 102.415 576.13 102.723C575.693 103.03 575.474 103.465 575.474 104.027C575.474 104.517 575.623 104.879 575.919 105.113C576.216 105.348 576.61 105.465 577.099 105.465C577.86 105.465 578.482 105.254 578.966 104.832C579.451 104.41 579.693 103.777 579.693 102.934V102.145ZM586.037 110.207C584.912 110.207 584.044 109.996 583.435 109.574C582.826 109.158 582.521 108.572 582.521 107.816C582.521 107.28 582.69 106.822 583.029 106.441C583.373 106.061 583.847 105.809 584.451 105.684C584.227 105.579 584.034 105.423 583.873 105.215C583.716 105.007 583.638 104.767 583.638 104.496C583.638 104.184 583.724 103.91 583.896 103.676C584.073 103.436 584.341 103.207 584.701 102.988C584.253 102.806 583.888 102.499 583.607 102.066C583.331 101.629 583.193 101.121 583.193 100.543C583.193 99.9284 583.32 99.4049 583.576 98.9727C583.831 98.5352 584.201 98.2018 584.685 97.9727C585.169 97.7435 585.755 97.6289 586.443 97.6289C586.594 97.6289 586.745 97.6367 586.896 97.6523C587.052 97.6628 587.201 97.681 587.341 97.707C587.482 97.7279 587.604 97.7539 587.708 97.7852H590.646V98.6211L589.068 98.8164C589.224 99.0195 589.354 99.2643 589.458 99.5508C589.563 99.8372 589.615 100.155 589.615 100.504C589.615 101.358 589.326 102.038 588.748 102.543C588.169 103.043 587.375 103.293 586.365 103.293C586.125 103.293 585.88 103.272 585.63 103.23C585.375 103.371 585.18 103.527 585.044 103.699C584.914 103.871 584.849 104.069 584.849 104.293C584.849 104.46 584.899 104.592 584.998 104.691C585.102 104.79 585.25 104.863 585.443 104.91C585.636 104.952 585.867 104.973 586.138 104.973H587.646C588.578 104.973 589.292 105.168 589.787 105.559C590.287 105.949 590.537 106.52 590.537 107.27C590.537 108.217 590.151 108.944 589.38 109.449C588.61 109.954 587.495 110.207 586.037 110.207ZM586.076 109.191C586.784 109.191 587.37 109.118 587.833 108.973C588.302 108.832 588.651 108.626 588.88 108.355C589.115 108.09 589.232 107.772 589.232 107.402C589.232 107.059 589.154 106.798 588.998 106.621C588.841 106.449 588.612 106.335 588.31 106.277C588.008 106.215 587.638 106.184 587.201 106.184H585.716C585.331 106.184 584.995 106.243 584.708 106.363C584.422 106.483 584.201 106.66 584.044 106.895C583.893 107.129 583.818 107.421 583.818 107.77C583.818 108.233 584.013 108.585 584.404 108.824C584.794 109.069 585.352 109.191 586.076 109.191ZM586.412 102.348C587.031 102.348 587.498 102.191 587.81 101.879C588.123 101.566 588.279 101.111 588.279 100.512C588.279 99.8711 588.12 99.3919 587.802 99.0742C587.485 98.7513 587.016 98.5898 586.396 98.5898C585.802 98.5898 585.344 98.7565 585.021 99.0898C584.703 99.418 584.544 99.8997 584.544 100.535C584.544 101.118 584.706 101.566 585.029 101.879C585.352 102.191 585.813 102.348 586.412 102.348ZM596.224 97.6445C596.396 97.6445 596.576 97.6549 596.763 97.6758C596.951 97.6914 597.117 97.7148 597.263 97.7461L597.099 98.9492C596.958 98.9128 596.802 98.8841 596.63 98.8633C596.458 98.8424 596.297 98.832 596.146 98.832C595.802 98.832 595.477 98.9023 595.169 99.043C594.867 99.1784 594.602 99.3763 594.373 99.6367C594.143 99.8919 593.964 100.202 593.833 100.566C593.703 100.926 593.638 101.327 593.638 101.77V106.363H592.333V97.8008H593.412L593.552 99.3789H593.607C593.784 99.0612 593.998 98.7721 594.248 98.5117C594.498 98.2461 594.787 98.0352 595.115 97.8789C595.448 97.7227 595.818 97.6445 596.224 97.6445ZM602.083 97.6602C603.104 97.6602 603.862 97.8893 604.357 98.3477C604.852 98.806 605.099 99.5378 605.099 100.543V106.363H604.154L603.904 105.098H603.841C603.602 105.41 603.352 105.673 603.091 105.887C602.831 106.095 602.529 106.254 602.185 106.363C601.847 106.467 601.43 106.52 600.935 106.52C600.414 106.52 599.951 106.428 599.544 106.246C599.143 106.064 598.826 105.788 598.591 105.418C598.362 105.048 598.248 104.579 598.248 104.012C598.248 103.158 598.586 102.501 599.263 102.043C599.94 101.585 600.972 101.335 602.357 101.293L603.833 101.23V100.707C603.833 99.9674 603.675 99.4492 603.357 99.1523C603.039 98.8555 602.591 98.707 602.013 98.707C601.565 98.707 601.138 98.7721 600.732 98.9023C600.326 99.0326 599.94 99.1862 599.576 99.3633L599.177 98.3789C599.563 98.181 600.005 98.0117 600.505 97.8711C601.005 97.7305 601.531 97.6602 602.083 97.6602ZM603.818 102.145L602.513 102.199C601.445 102.241 600.693 102.415 600.255 102.723C599.818 103.03 599.599 103.465 599.599 104.027C599.599 104.517 599.748 104.879 600.044 105.113C600.341 105.348 600.735 105.465 601.224 105.465C601.985 105.465 602.607 105.254 603.091 104.832C603.576 104.41 603.818 103.777 603.818 102.934V102.145ZM611.826 97.6445C612.841 97.6445 613.61 97.8945 614.13 98.3945C614.651 98.8893 614.912 99.6862 614.912 100.785V106.363H613.63V100.871C613.63 100.158 613.466 99.6237 613.138 99.2695C612.815 98.9154 612.318 98.7383 611.646 98.7383C610.698 98.7383 610.031 99.0065 609.646 99.543C609.261 100.079 609.068 100.858 609.068 101.879V106.363H607.771V97.8008H608.818L609.013 99.0352H609.083C609.266 98.7331 609.498 98.4805 609.779 98.2773C610.06 98.069 610.375 97.9128 610.724 97.8086C611.073 97.6992 611.44 97.6445 611.826 97.6445ZM620.63 106.52C619.547 106.52 618.688 106.15 618.052 105.41C617.422 104.671 617.107 103.572 617.107 102.113C617.107 100.639 617.43 99.5273 618.076 98.7773C618.722 98.0221 619.581 97.6445 620.654 97.6445C621.107 97.6445 621.503 97.7044 621.841 97.8242C622.18 97.944 622.472 98.1055 622.716 98.3086C622.961 98.5065 623.167 98.7331 623.333 98.9883H623.427C623.406 98.8268 623.386 98.6055 623.365 98.3242C623.344 98.043 623.333 97.8138 623.333 97.6367V94.207H624.63V106.363H623.583L623.388 105.145H623.333C623.172 105.4 622.966 105.632 622.716 105.84C622.472 106.048 622.177 106.215 621.833 106.34C621.495 106.46 621.094 106.52 620.63 106.52ZM620.833 105.441C621.75 105.441 622.399 105.181 622.779 104.66C623.159 104.139 623.349 103.366 623.349 102.34V102.105C623.349 101.017 623.167 100.181 622.802 99.5977C622.443 99.0143 621.787 98.7227 620.833 98.7227C620.037 98.7227 619.44 99.0299 619.044 99.6445C618.649 100.254 618.451 101.087 618.451 102.145C618.451 103.197 618.646 104.009 619.037 104.582C619.432 105.155 620.031 105.441 620.833 105.441ZM635.56 97.6445C636.628 97.6445 637.479 98.0117 638.115 98.7461C638.75 99.4805 639.068 100.585 639.068 102.059C639.068 103.033 638.922 103.85 638.63 104.512C638.339 105.173 637.927 105.673 637.396 106.012C636.87 106.35 636.248 106.52 635.529 106.52C635.076 106.52 634.677 106.46 634.333 106.34C633.99 106.22 633.695 106.059 633.451 105.855C633.206 105.652 633.003 105.431 632.841 105.191H632.748C632.763 105.395 632.781 105.639 632.802 105.926C632.828 106.212 632.841 106.462 632.841 106.676V110.191H631.537V97.8008H632.607L632.779 99.0664H632.841C633.008 98.806 633.211 98.569 633.451 98.3555C633.69 98.1367 633.982 97.9648 634.326 97.8398C634.675 97.7096 635.086 97.6445 635.56 97.6445ZM635.333 98.7383C634.74 98.7383 634.261 98.8529 633.896 99.082C633.537 99.3112 633.274 99.6549 633.107 100.113C632.94 100.566 632.852 101.137 632.841 101.824V102.074C632.841 102.798 632.919 103.41 633.076 103.91C633.237 104.41 633.5 104.79 633.865 105.051C634.235 105.311 634.729 105.441 635.349 105.441C635.88 105.441 636.323 105.298 636.677 105.012C637.031 104.725 637.294 104.327 637.466 103.816C637.643 103.301 637.732 102.71 637.732 102.043C637.732 101.033 637.534 100.23 637.138 99.6367C636.748 99.0378 636.146 98.7383 635.333 98.7383ZM645.224 97.6445C645.396 97.6445 645.576 97.6549 645.763 97.6758C645.951 97.6914 646.117 97.7148 646.263 97.7461L646.099 98.9492C645.958 98.9128 645.802 98.8841 645.63 98.8633C645.458 98.8424 645.297 98.832 645.146 98.832C644.802 98.832 644.477 98.9023 644.169 99.043C643.867 99.1784 643.602 99.3763 643.373 99.6367C643.143 99.8919 642.964 100.202 642.833 100.566C642.703 100.926 642.638 101.327 642.638 101.77V106.363H641.333V97.8008H642.412L642.552 99.3789H642.607C642.784 99.0612 642.998 98.7721 643.248 98.5117C643.498 98.2461 643.787 98.0352 644.115 97.8789C644.448 97.7227 644.818 97.6445 645.224 97.6445ZM655.263 102.066C655.263 102.77 655.172 103.397 654.99 103.949C654.807 104.501 654.544 104.967 654.201 105.348C653.857 105.728 653.44 106.02 652.951 106.223C652.466 106.421 651.917 106.52 651.302 106.52C650.729 106.52 650.203 106.421 649.724 106.223C649.25 106.02 648.839 105.728 648.49 105.348C648.146 104.967 647.878 104.501 647.685 103.949C647.498 103.397 647.404 102.77 647.404 102.066C647.404 101.129 647.563 100.332 647.88 99.6758C648.198 99.0143 648.651 98.5117 649.24 98.168C649.833 97.819 650.539 97.6445 651.357 97.6445C652.138 97.6445 652.82 97.819 653.404 98.168C653.992 98.5169 654.448 99.0221 654.771 99.6836C655.099 100.34 655.263 101.134 655.263 102.066ZM648.748 102.066C648.748 102.754 648.839 103.35 649.021 103.855C649.203 104.361 649.485 104.751 649.865 105.027C650.245 105.303 650.735 105.441 651.333 105.441C651.927 105.441 652.414 105.303 652.794 105.027C653.18 104.751 653.464 104.361 653.646 103.855C653.828 103.35 653.919 102.754 653.919 102.066C653.919 101.384 653.828 100.796 653.646 100.301C653.464 99.8008 653.182 99.4154 652.802 99.1445C652.422 98.8737 651.93 98.7383 651.326 98.7383C650.435 98.7383 649.781 99.0326 649.365 99.6211C648.953 100.21 648.748 101.025 648.748 102.066ZM661.529 97.6445C662.597 97.6445 663.448 98.0117 664.083 98.7461C664.719 99.4805 665.037 100.585 665.037 102.059C665.037 103.033 664.891 103.85 664.599 104.512C664.307 105.173 663.896 105.673 663.365 106.012C662.839 106.35 662.216 106.52 661.498 106.52C661.044 106.52 660.646 106.46 660.302 106.34C659.958 106.22 659.664 106.059 659.419 105.855C659.175 105.652 658.972 105.431 658.81 105.191H658.716C658.732 105.395 658.75 105.639 658.771 105.926C658.797 106.212 658.81 106.462 658.81 106.676V110.191H657.505V97.8008H658.576L658.748 99.0664H658.81C658.977 98.806 659.18 98.569 659.419 98.3555C659.659 98.1367 659.951 97.9648 660.294 97.8398C660.643 97.7096 661.055 97.6445 661.529 97.6445ZM661.302 98.7383C660.708 98.7383 660.229 98.8529 659.865 99.082C659.505 99.3112 659.242 99.6549 659.076 100.113C658.909 100.566 658.82 101.137 658.81 101.824V102.074C658.81 102.798 658.888 103.41 659.044 103.91C659.206 104.41 659.469 104.79 659.833 105.051C660.203 105.311 660.698 105.441 661.318 105.441C661.849 105.441 662.292 105.298 662.646 105.012C663 104.725 663.263 104.327 663.435 103.816C663.612 103.301 663.701 102.71 663.701 102.043C663.701 101.033 663.503 100.23 663.107 99.6367C662.716 99.0378 662.115 98.7383 661.302 98.7383ZM670.599 97.6445C671.328 97.6445 671.953 97.806 672.474 98.1289C672.995 98.4518 673.393 98.9049 673.669 99.4883C673.945 100.066 674.083 100.743 674.083 101.52V102.324H668.169C668.185 103.329 668.435 104.095 668.919 104.621C669.404 105.147 670.086 105.41 670.966 105.41C671.508 105.41 671.987 105.361 672.404 105.262C672.82 105.163 673.253 105.017 673.701 104.824V105.965C673.268 106.158 672.839 106.298 672.412 106.387C671.99 106.475 671.49 106.52 670.912 106.52C670.089 106.52 669.37 106.353 668.755 106.02C668.146 105.681 667.672 105.186 667.333 104.535C666.995 103.884 666.826 103.087 666.826 102.145C666.826 101.223 666.979 100.426 667.287 99.7539C667.599 99.0768 668.037 98.556 668.599 98.1914C669.167 97.8268 669.833 97.6445 670.599 97.6445ZM670.583 98.707C669.891 98.707 669.339 98.9336 668.927 99.3867C668.516 99.8398 668.271 100.473 668.193 101.285H672.724C672.719 100.775 672.638 100.327 672.482 99.9414C672.331 99.5508 672.099 99.2487 671.787 99.0352C671.474 98.8164 671.073 98.707 670.583 98.707ZM680.177 97.6445C680.349 97.6445 680.529 97.6549 680.716 97.6758C680.904 97.6914 681.07 97.7148 681.216 97.7461L681.052 98.9492C680.912 98.9128 680.755 98.8841 680.583 98.8633C680.412 98.8424 680.25 98.832 680.099 98.832C679.755 98.832 679.43 98.9023 679.123 99.043C678.82 99.1784 678.555 99.3763 678.326 99.6367C678.097 99.8919 677.917 100.202 677.787 100.566C677.656 100.926 677.591 101.327 677.591 101.77V106.363H676.287V97.8008H677.365L677.505 99.3789H677.56C677.737 99.0612 677.951 98.7721 678.201 98.5117C678.451 98.2461 678.74 98.0352 679.068 97.8789C679.401 97.7227 679.771 97.6445 680.177 97.6445ZM685.599 105.457C685.813 105.457 686.031 105.439 686.255 105.402C686.479 105.366 686.662 105.322 686.802 105.27V106.277C686.651 106.345 686.44 106.402 686.169 106.449C685.904 106.496 685.643 106.52 685.388 106.52C684.935 106.52 684.524 106.441 684.154 106.285C683.784 106.124 683.487 105.853 683.263 105.473C683.044 105.092 682.935 104.566 682.935 103.895V98.8164H681.716V98.1836L682.943 97.6758L683.458 95.8164H684.24V97.8008H686.748V98.8164H684.24V103.855C684.24 104.392 684.362 104.793 684.607 105.059C684.857 105.324 685.188 105.457 685.599 105.457ZM689.833 97.8008V106.363H688.537V97.8008H689.833ZM689.201 94.5977C689.414 94.5977 689.597 94.668 689.748 94.8086C689.904 94.944 689.982 95.1576 689.982 95.4492C689.982 95.7357 689.904 95.9492 689.748 96.0898C689.597 96.2305 689.414 96.3008 689.201 96.3008C688.977 96.3008 688.789 96.2305 688.638 96.0898C688.492 95.9492 688.419 95.7357 688.419 95.4492C688.419 95.1576 688.492 94.944 688.638 94.8086C688.789 94.668 688.977 94.5977 689.201 94.5977ZM695.88 97.6445C696.61 97.6445 697.235 97.806 697.755 98.1289C698.276 98.4518 698.675 98.9049 698.951 99.4883C699.227 100.066 699.365 100.743 699.365 101.52V102.324H693.451C693.466 103.329 693.716 104.095 694.201 104.621C694.685 105.147 695.367 105.41 696.248 105.41C696.789 105.41 697.268 105.361 697.685 105.262C698.102 105.163 698.534 105.017 698.982 104.824V105.965C698.55 106.158 698.12 106.298 697.693 106.387C697.271 106.475 696.771 106.52 696.193 106.52C695.37 106.52 694.651 106.353 694.037 106.02C693.427 105.681 692.953 105.186 692.615 104.535C692.276 103.884 692.107 103.087 692.107 102.145C692.107 101.223 692.261 100.426 692.568 99.7539C692.88 99.0768 693.318 98.556 693.88 98.1914C694.448 97.8268 695.115 97.6445 695.88 97.6445ZM695.865 98.707C695.172 98.707 694.62 98.9336 694.208 99.3867C693.797 99.8398 693.552 100.473 693.474 101.285H698.005C698 100.775 697.919 100.327 697.763 99.9414C697.612 99.5508 697.38 99.2487 697.068 99.0352C696.755 98.8164 696.354 98.707 695.865 98.707ZM707.107 104.02C707.107 104.566 706.969 105.027 706.693 105.402C706.422 105.772 706.031 106.051 705.521 106.238C705.016 106.426 704.412 106.52 703.708 106.52C703.11 106.52 702.591 106.473 702.154 106.379C701.716 106.285 701.333 106.152 701.005 105.98V104.785C701.354 104.957 701.771 105.113 702.255 105.254C702.74 105.395 703.235 105.465 703.74 105.465C704.479 105.465 705.016 105.345 705.349 105.105C705.682 104.866 705.849 104.54 705.849 104.129C705.849 103.895 705.781 103.689 705.646 103.512C705.516 103.329 705.294 103.155 704.982 102.988C704.669 102.816 704.237 102.629 703.685 102.426C703.138 102.217 702.664 102.012 702.263 101.809C701.867 101.6 701.56 101.348 701.341 101.051C701.128 100.754 701.021 100.368 701.021 99.8945C701.021 99.1706 701.313 98.6159 701.896 98.2305C702.485 97.8398 703.255 97.6445 704.208 97.6445C704.724 97.6445 705.206 97.6966 705.654 97.8008C706.107 97.8997 706.529 98.0352 706.919 98.207L706.482 99.2461C706.128 99.0951 705.75 98.9674 705.349 98.8633C704.948 98.7591 704.539 98.707 704.123 98.707C703.524 98.707 703.063 98.806 702.74 99.0039C702.422 99.2018 702.263 99.4727 702.263 99.8164C702.263 100.082 702.336 100.301 702.482 100.473C702.633 100.645 702.873 100.806 703.201 100.957C703.529 101.108 703.961 101.285 704.498 101.488C705.034 101.686 705.498 101.892 705.888 102.105C706.279 102.314 706.578 102.569 706.787 102.871C707 103.168 707.107 103.551 707.107 104.02ZM708.998 105.551C708.998 105.186 709.086 104.928 709.263 104.777C709.44 104.621 709.656 104.543 709.912 104.543C710.177 104.543 710.401 104.621 710.583 104.777C710.766 104.928 710.857 105.186 710.857 105.551C710.857 105.91 710.766 106.173 710.583 106.34C710.401 106.501 710.177 106.582 709.912 106.582C709.656 106.582 709.44 106.501 709.263 106.34C709.086 106.173 708.998 105.91 708.998 105.551Z" fill="#232323"/>
</g>
<defs>
<filter id="filter0_d_198_1056" x="0.810059" y="0.363281" width="988" height="199" filterUnits="userSpaceOnUse" color-interpolation-filters="sRGB">
<feFlood flood-opacity="0" result="BackgroundImageFix"/>
<feColorMatrix in="SourceAlpha" type="matrix" values="0 0 0 0 0 0 0 0 0 0 0 0 0 0 0 0 0 0 127 0" result="hardAlpha"/>
<feOffset/>
<feGaussianBlur stdDeviation="6"/>
<feComposite in2="hardAlpha" operator="out"/>
<feColorMatrix type="matrix" values="0 0 0 0 0 0 0 0 0 0 0 0 0 0 0 0 0 0 0.4 0"/>
<feBlend mode="normal" in2="BackgroundImageFix" result="effect1_dropShadow_198_1056"/>
<feBlend mode="normal" in="SourceGraphic" in2="effect1_dropShadow_198_1056" result="shape"/>
</filter>
<clipPath id="clip0_198_1056">
<rect width="884" height="36" fill="white" transform="translate(52.8101 37.3633)"/>
</clipPath>
</defs>
</svg>
